PathFileType	3	(X/Y/Z)	D:\minhoCalibration\240510\subject1_KPNP\preferred\preferred02.trc
DataRate	CameraRate	NumFrames	NumMarkers	Units	OrigDataRate	OrigDataStartFrame	OrigNumFrames
200.0	200.0	21	10	mm	200.0	145	236	
Frame#	Time	Left_Ankle_Outer1			Left_Ankle_Inner1			Left_Knee_Outer1			Left_Knee_Inner1			Left_Wrist1			Right_Wrist1			Right_Knee_Inner1			Right_Knee_Outer1			Right_Ankle_Inner1			Right_Ankle_Outer1			
		X1	Y1	Z1	X2	Y2	Z2	X3	Y3	Z3	X4	Y4	Z4	X5	Y5	Z5	X6	Y6	Z6	X7	Y7	Z7	X8	Y8	Z8	X9	Y9	Z9	X10	Y10	Z10	
145	0.715	-449.76648	131.82382	-600.20953	-506.70306	132.73409	-582.02197	-487.86005	582.55841	-506.1478	-585.56091	526.97186	-537.31268	-524.18567	987.98755	-687.59839	-746.5755	991.76801	-965.5423	-719.19263	514.02734	-936.38275	-758.51917	550.133	-1033.2501	-627.08325	120.0891	-1106.5295	-670.18268	125.30058	-1190.8541
146	0.72	-450.93497	132.12308	-599.71875	-507.65015	133.18266	-581.08038	-485.84711	582.88519	-503.98361	-584.16779	527.70599	-533.98999	-523.15222	987.3866	-686.4444	-746.20831	990.87518	-963.04437	-719.08649	513.80029	-935.42572	-758.27704	550.06848	-1032.1768	-627.04675	120.17023	-1106.2657	-670.13733	125.42209	-1190.5876
147	0.725	-452.37793	132.30632	-599.12006	-508.83896	133.62019	-580.12878	-483.84799	583.08734	-501.87289	-583.03815	528.6864	-530.92828	-522.19019	986.57355	-685.17737	-745.27863	990.84674	-962.17511	-718.94067	513.51862	-934.30371	-758.02747	550.05035	-1031.2123	-626.95441	120.13937	-1106.0288	-670.11859	125.48013	-1190.3145
148	0.73	-454.0014	132.61324	-598.60388	-510.22595	134.12433	-579.05017	-481.85471	583.27368	-499.73724	-581.64917	529.43469	-527.56323	-520.81384	985.95624	-684.07788	-744.5611	990.54407	-960.48328	-718.90894	513.16986	-933.10394	-757.72223	549.87305	-1029.9828	-626.86237	120.16786	-1105.6654	-669.98334	125.6987	-1189.9408
149	0.735	-455.81934	132.68889	-598.12103	-511.83826	134.49132	-577.96204	-479.32239	583.55664	-497.96939	-580.1568	530.09857	-524.25537	-519.36047	985.33038	-682.99817	-743.71344	990.3819	-959.00775	-718.67889	512.79218	-932.0282	-757.3255	549.79291	-1028.9315	-626.78802	120.19946	-1105.2628	-669.89813	125.67064	-1189.5566
150	0.74	-457.9364	132.83034	-597.69135	-513.67303	134.86131	-576.81665	-477.32397	583.61487	-495.90616	-578.67029	530.78741	-520.93121	-517.79028	984.67163	-681.92487	-743.14752	989.8028	-956.96442	-718.58087	512.4325	-930.72144	-757.04218	549.63306	-1027.7402	-626.58673	119.99773	-1104.9764	-669.60553	126.02885	-1189.1282
151	0.745	-460.28177	132.84624	-597.17767	-515.70184	135.18782	-575.61438	-475.26993	583.54333	-493.86316	-577.48767	531.3833	-517.73187	-516.22247	983.9707	-680.82269	-742.42938	989.61371	-954.86566	-718.35254	512.03333	-929.5094	-756.55658	549.38171	-1026.3624	-626.52551	119.93623	-1104.3655	-669.40314	126.14934	-1188.6881
152	0.75	-462.84259	132.8557	-596.66571	-517.85315	135.35545	-574.40729	-473.21094	583.37457	-491.80237	-576.19446	531.92358	-514.4848	-514.37329	983.29486	-679.69965	-741.8891	989.08002	-952.70874	-718.08917	511.59506	-928.17889	-756.17297	549.26172	-1025.1949	-626.29095	119.77879	-1103.8501	-669.13501	126.1983	-1188.1205
153	0.755	-465.57056	132.82303	-596.15881	-520.28632	135.66115	-573.19495	-471.17972	583.125	-489.74976	-574.86591	532.42456	-511.05368	-512.16113	982.93738	-679.03815	-741.21185	988.67987	-950.58557	-717.78369	511.14185	-926.83075	-755.7002	548.97772	-1023.8804	-626.01587	119.60701	-1103.3424	-668.75348	126.41783	-1187.5913
154	0.76	-468.50961	132.62115	-595.5675	-522.77509	135.87538	-571.79071	-469.15137	582.77289	-487.76462	-573.35938	532.99756	-507.54028	-510.39444	981.90234	-677.66711	-740.52814	988.03723	-948.52832	-717.51025	510.75089	-925.48798	-755.29144	548.66229	-1022.4811	-625.76453	119.53331	-1102.7506	-668.39081	126.61684	-1186.9757
155	0.765	-471.50735	132.5491	-595.07458	-525.37451	136.03214	-570.47839	-467.08994	582.33112	-485.78729	-572.29767	533.38007	-504.35657	-508.37564	981.1731	-676.73676	-739.75684	987.73206	-945.85468	-717.12903	510.31363	-924.02222	-754.9173	548.47467	-1021.1407	-625.54327	119.33903	-1102.1536	-667.99731	126.87688	-1186.3997
156	0.77	-474.58255	132.40775	-594.46423	-528.16046	136.12555	-569.21588	-465.09579	581.836	-483.84586	-570.91315	533.76953	-500.98038	-506.59842	980.01721	-675.28986	-739.13062	987.06921	-943.67767	-716.70905	509.83398	-922.62555	-754.45612	548.13	-1019.6257	-625.16693	119.18194	-1101.5502	-667.64075	126.86417	-1185.8331
157	0.775	-477.95236	132.24744	-593.86304	-530.9682	136.21629	-567.72943	-463.0672	581.20972	-481.87708	-569.57233	533.9339	-497.52271	-504.75156	978.95184	-674.00519	-738.22174	986.69415	-941.38202	-716.24866	509.41193	-921.2818	-754.07489	547.84088	-1018.1417	-624.92419	119.0941	-1100.822	-667.1947	126.88465	-1185.2026
158	0.78	-481.30017	132.01506	-593.20551	-533.93549	136.37193	-566.37164	-461.14056	580.51221	-479.93698	-568.0426	534.23364	-493.80386	-502.95139	977.85107	-672.63525	-737.50873	986.07605	-938.83386	-715.8595	508.88193	-919.80579	-753.67474	547.53607	-1016.6825	-624.57568	118.86526	-1100.2427	-666.72198	127.0186	-1184.6251
159	0.785	-484.66144	131.84679	-592.5589	-536.7876	136.39326	-564.88599	-459.23413	579.7276	-478.0419	-566.95953	534.28131	-490.32477	-501.21594	976.66895	-671.3396	-736.51648	985.91492	-936.7196	-715.44061	508.43948	-918.39337	-753.36102	547.23083	-1015.186	-624.33966	118.76363	-1099.5121	-666.27075	127.21634	-1183.9651
160	0.79	-488.15207	131.54613	-591.92987	-539.67444	136.42509	-563.396	-457.39346	578.87708	-476.10138	-565.71625	534.47687	-486.68405	-499.64108	975.49707	-670.00293	-735.94147	985.08813	-934.05139	-714.9726	507.90637	-917.03668	-753.02618	546.89111	-1013.7034	-623.88208	118.40659	-1099.0057	-665.74078	127.25222	-1183.3267
161	0.795	-491.66977	131.19279	-590.83813	-541.85303	136.05511	-560.65088	-455.59921	577.95062	-474.16245	-564.49902	534.44714	-483.24472	-498.03806	974.11206	-668.55011	-735.14105	984.65314	-931.70111	-714.66626	507.28745	-915.52155	-752.63794	546.49152	-1012.2275	-623.62512	118.20501	-1098.4038	-665.35803	126.88868	-1182.8563
162	0.8	-494.84274	131.1936	-590.60028	-544.6438	136.07018	-559.22906	-453.89563	576.99042	-472.14676	-563.31073	534.47101	-479.65195	-496.7034	972.67169	-667.04169	-734.51776	983.98462	-929.38129	-714.35468	506.62094	-914.14288	-752.34943	546.03235	-1010.7058	-623.07434	117.89177	-1097.8781	-664.92383	126.80511	-1182.2988
163	0.805	-498.06894	131.00418	-590.01764	-547.38232	136.01715	-557.81732	-452.29327	575.97833	-470.12747	-562.13135	534.31702	-476.15976	-495.22076	971.22034	-665.49139	-733.80267	983.5285	-926.89148	-714.01923	505.88412	-912.56873	-752.1355	545.58319	-1009.1415	-622.65881	117.64933	-1097.342	-664.37842	127.15229	-1181.7068
164	0.81	-501.32681	130.79251	-589.28656	-550.18048	135.91183	-556.67426	-450.83975	574.87225	-468.0386	-561.03876	534.10187	-472.66693	-493.89569	969.66699	-663.935	-733.12042	982.9762	-924.53479	-713.711	505.0993	-911.05566	-751.94708	545.04004	-1007.5867	-622.37982	117.41835	-1096.7228	-663.92474	127.0872	-1181.1766
165	0.815	-504.44919	130.63121	-588.71277	-552.81165	135.85468	-555.56464	-449.42932	573.8009	-465.79819	-560.0033	533.83679	-469.25839	-492.58942	968.09534	-662.3302	-732.4447	982.40466	-921.99841	-713.50195	504.20435	-909.43536	-751.7793	544.46875	-1006.007	-621.92694	117.09499	-1096.2473	-663.43164	127.1241	-1180.6581
